<svg id="Layer_1" data-name="Layer 1" xmlns="http://www.w3.org/2000/svg" viewBox="0 0 688.78 914.6"><defs><style>.cls-1{fill:#fff;}</style></defs><path class="cls-1" d="M100,219.25q-8.4,8.64-16.58,10.64a24.8,24.8,0,0,1-16.36-1.63,57.75,57.75,0,0,1-16.41-11.63L20.23,187.09a56,56,0,0,1-12-15.91,24.07,24.07,0,0,1-1.86-16Q8.23,147,16.61,138.38q8.58-8.83,16.62-10.89a24.55,24.55,0,0,1,16.14,1.34q8.07,3.43,16.31,11.43L96.22,169.9a55.38,55.38,0,0,1,11.92,16,25.49,25.49,0,0,1,2.13,16.3Q108.6,210.4,100,219.25ZM89,208.62c2.41-2.48,3.64-4.82,3.71-7A11.33,11.33,0,0,0,90.6,195a40.85,40.85,0,0,0-5.55-6.55L47.58,152.06a39.33,39.33,0,0,0-6.72-5.34,10.77,10.77,0,0,0-6.49-1.83c-2.17.17-4.47,1.49-6.87,4s-3.48,4.62-3.61,6.84a10.56,10.56,0,0,0,1.93,6.55,39.71,39.71,0,0,0,5.55,6.52l37.44,36.37a44.38,44.38,0,0,0,6.67,5.4,10.77,10.77,0,0,0,6.71,1.93c2.24-.17,4.53-1.47,6.87-3.88Z" transform="translate(0 0)"/><path class="cls-1" d="M135.89,184.35,72.37,90.44,89.53,78.82l55.56,82.09,22.72-15.38,8,11.82Z" transform="translate(0 0)"/><path class="cls-1" d="M186.63,152,140.46,48.37l18.91-8.43,40.36,90.53,25.06-11.18,5.82,13Z" transform="translate(0 0)"/><path class="cls-1" d="M242.24,128.9,215.15,18.78,261.37,7.41l3.48,14.14L238.75,28l7.79,31.67,20.53-5,3.44,14-20.53,5,9,36.43,26.39-6.48,3.41,13.87Z" transform="translate(0 0)"/><path class="cls-1" d="M337.59,113.32,341.84,0l20.71.78-3.72,99.05,27.42,1-.53,14.34Z" transform="translate(0 0)"/><path class="cls-1" d="M397.67,117.17,421.72,6.31l46.52,10.1-3.09,14.23-26.27-5.71L432,56.81l20.66,4.49-3.06,14.09L428.9,70.9l-8,36.67,26.55,5.76-3,14Z" transform="translate(0 0)"/><path class="cls-1" d="M457.64,131.94l43.5-104.77,19.13,8-38,91.54,25.34,10.53-5.48,13.18Z" transform="translate(0 0)"/><path class="cls-1" d="M512.62,156.5l61.29-95.4L614,86.83l-7.87,12.25L583.47,84.55,565.84,112l17.79,11.43-7.8,12.13-17.78-11.38-20.28,31.52,22.85,14.68-7.72,12Z" transform="translate(0 0)"/><path class="cls-1" d="M585.37,213.88q-9-8.85-10.71-17A23.58,23.58,0,0,1,577,180.67a69.21,69.21,0,0,1,12.46-16.41l53.89-54.61,14.35,14.16-55.56,56.3a68.8,68.8,0,0,0-6.54,7.62,14,14,0,0,0-3,7.69q-.18,3.86,3.51,7.5,3.89,3.84,7.65,3.51a15.17,15.17,0,0,0,7.6-3.12,60.82,60.82,0,0,0,7.58-6.58l55.56-56.3,14.25,14.06L635,209.1a69.39,69.39,0,0,1-16.25,12.68,23.74,23.74,0,0,1-16.07,2.63Q594.48,222.84,585.37,213.88Z" transform="translate(0 0)"/><path class="cls-1" d="M0,757.53l80.43-80,19.64,19.76A61.09,61.09,0,0,1,108.7,708a27.59,27.59,0,0,1,4.07,10.75,21.13,21.13,0,0,1-1.51,11.08,36.26,36.26,0,0,1-8.35,11.66,32.51,32.51,0,0,1-9.68,6.95A17.73,17.73,0,0,1,83.82,750a20.11,20.11,0,0,1-9.14-3.74,23.55,23.55,0,0,1,4.52,11.2,21.41,21.41,0,0,1-2,11.23A39.36,39.36,0,0,1,68.9,780a46.5,46.5,0,0,1-11.6,8.68,26.51,26.51,0,0,1-11.6,3A25.14,25.14,0,0,1,34.28,789,41.65,41.65,0,0,1,23,780.58ZM24.93,762l5.53,5.56q6.61,6.65,12.21,5.83T55,765.81a32.39,32.39,0,0,0,6.76-9,11.85,11.85,0,0,0,.76-8.26q-1.12-4.11-5.46-8.48l-5-5.07Zm37.24-37,4.93,5q4.35,4.37,8,5.47a9.81,9.81,0,0,0,7.27-.62A28.78,28.78,0,0,0,90.06,729q4.27-4.24,5.18-8a10.28,10.28,0,0,0-1.12-7.48,37.64,37.64,0,0,0-6.46-8.19l-2.86-2.88Z" transform="translate(0 0)"/><path class="cls-1" d="M76.49,827l62.4-94.69,39.74,26.19-8,12.16-22.44-14.79-17.95,27.24,17.65,11.63-7.93,12L122.3,795.17,101.65,826.5l22.72,14.89-7.85,11.93Z" transform="translate(0 0)"/><path class="cls-1" d="M149.93,871.17l41.44-105.55,25.28,9.93q10.72,4.19,17,9.62a22.33,22.33,0,0,1,7.8,13.07q1.44,7.63-2.7,18.19a54.31,54.31,0,0,1-5.68,11,23.35,23.35,0,0,1-7.37,7.1,19.28,19.28,0,0,1-9.93,2.5l-5.69,57.78-19.29-7.58,6.22-53.36-8.87-3.48-19,48.35Zm43-52.9,6,2.36a22,22,0,0,0,9.56,1.87,10.22,10.22,0,0,0,6.88-3.33,27,27,0,0,0,5-8.63q3.12-7.93,1.75-13.07t-9.6-8.3l-7-2.76Z" transform="translate(0 0)"/><path class="cls-1" d="M279.37,910.67q-11.08-1.54-17-7.17a26.13,26.13,0,0,1-7.49-14.69,66.82,66.82,0,0,1,0-20.84l5.27-37.72a69.38,69.38,0,0,1,5.68-20.41,24.47,24.47,0,0,1,11.64-12q7.65-3.68,20-2,11.5,1.61,17.76,6.44a22.38,22.38,0,0,1,8.22,12.53q2,7.7.51,18.09l-.81,5.82-19.55-2.72.89-6.38a49.3,49.3,0,0,0,.53-9.4A10.28,10.28,0,0,0,302.8,814c-1.34-1.55-3.72-2.57-7.14-3q-5.42-.76-8.2,1.54a12.61,12.61,0,0,0-4,6.5,65.89,65.89,0,0,0-1.94,9.34l-6.57,47a47,47,0,0,0-.44,10.26,12,12,0,0,0,2.69,7.08q2.31,2.67,7.17,3.34c3.32.46,6,0,8-1.43a13.63,13.63,0,0,0,4.64-6.42,46.56,46.56,0,0,0,2.51-10.4L301,867.17l-12.06-1.69,1.8-12.89,30.51,4.26-8,57L300,912v-11.3a21.63,21.63,0,0,1-8,8.14Q287.11,911.76,279.37,910.67Z" transform="translate(0 0)"/><path class="cls-1" d="M357.17,914.6l-9.92-113,20.64-1.81,4.36,49.64,18-51.6,19.62-1.66-17.18,52.38L422,908.94l-20.5,1.8L378,860.94,374,870l3.76,42.81Z" transform="translate(0 0)"/><path class="cls-1" d="M472.88,895.92,417.06,794.61l17.5-5.51,38.37,72L462.2,780.38l17.89-5.63,12.28,115Z" transform="translate(0 0)"/><path class="cls-1" d="M543.86,868.7l-51.59-101,18.2-9.29,51.59,101Z" transform="translate(0 0)"/><path class="cls-1" d="M618.57,825.09q-8.21,6.07-16.13,6.91a25.16,25.16,0,0,1-15.27-3.29q-7.38-4.12-14.35-12.9l12.25-13.35a55.07,55.07,0,0,0,8.18,8.4,16.8,16.8,0,0,0,7.87,3.86,9.76,9.76,0,0,0,7.43-2.07c2.71-2,4.05-4.22,4-6.65a13,13,0,0,0-2.83-7.4q-4.4-6-9.92-7.82a52.09,52.09,0,0,0-12.86-2.36l-19-1.7a42.77,42.77,0,0,1-14.57-3.62q-6.66-3-12.21-10.58-7.95-10.83-5.95-21.34t12.94-18.55a31.77,31.77,0,0,1,12.17-5.9,21,21,0,0,1,10.85.45,30.5,30.5,0,0,1,9.62,5.18,57.67,57.67,0,0,1,8.5,8.25l-12.38,12.93a60.67,60.67,0,0,0-6.6-7,13.25,13.25,0,0,0-6.49-3.4c-2.18-.36-4.48.34-6.88,2.11a8.56,8.56,0,0,0-3.92,6.61,11.49,11.49,0,0,0,2.47,7.48,17.17,17.17,0,0,0,7.51,6.21,36.79,36.79,0,0,0,10,2.08l18.77,1.67a58.31,58.31,0,0,1,17.81,4q8.68,3.44,15.32,12.45a28.71,28.71,0,0,1,5.67,13.74,25.63,25.63,0,0,1-2.16,13.84A30.07,30.07,0,0,1,618.57,825.09Z" transform="translate(0 0)"/><path class="cls-1" d="M674.5,773.94l-72.2-66.47-12.23,13.28-11.23-10.33,38.31-41.61,11.22,10.36-12,13.08,72.2,66.47Z" transform="translate(0 0)"/></svg>